<?xml version="1.0" encoding="utf-8"?>
<!-- Generator: Adobe Illustrator 25.4.1, SVG Export Plug-In . SVG Version: 6.00 Build 0)  -->
<svg version="1.1" id="Layer_1" xmlns="http://www.w3.org/2000/svg" xmlns:xlink="http://www.w3.org/1999/xlink" x="0px" y="0px"
	 viewBox="0 0 52 52" style="enable-background:new 0 0 52 52;" xml:space="preserve">
<style type="text/css">
	.st0{fill:#FFFFFF;filter:url(#Adobe_OpacityMaskFilter);}
	
		.st1{mask:url(#path-1-inside-1_1_71_00000045583271484690403130000002713463913034489007_);fill:none;stroke:#000000;stroke-width:6;}
</style>
<defs>
	<filter id="Adobe_OpacityMaskFilter" filterUnits="userSpaceOnUse" x="-2.8" y="-2.8" width="58" height="58">
		<feColorMatrix  type="matrix" values="1 0 0 0 0  0 1 0 0 0  0 0 1 0 0  0 0 0 1 0"/>
	</filter>
</defs>
<mask maskUnits="userSpaceOnUse" x="-2.8" y="-2.8" width="58" height="58" id="path-1-inside-1_1_71_00000045583271484690403130000002713463913034489007_">
	<path class="st0" d="M49.5,37.9c2.8-5.5,3.5-11.8,2.1-17.7c-1.4-6-4.9-11.2-9.9-14.9s-11-5.4-17.1-5s-11.9,3-16.3,7.2
		c-4.4,4.3-7.2,9.9-7.8,16c-0.6,6.1,0.9,12.2,4.4,17.3c3.4,5.1,8.6,8.8,14.5,10.4c5.9,1.7,12.2,1.2,17.8-1.4l-1.1-2.5
		c-5,2.3-10.6,2.7-15.9,1.2c-5.3-1.5-9.9-4.8-13-9.3c-3.1-4.5-4.5-10-3.9-15.5c0.6-5.5,3.1-10.5,7-14.3c4-3.8,9.1-6.1,14.6-6.4
		c5.5-0.4,10.9,1.2,15.3,4.5c4.4,3.3,7.5,8,8.8,13.3c1.3,5.3,0.6,11-1.8,15.9L49.5,37.9z"/>
</mask>
<path class="st1" d="M49.5,37.9c2.8-5.5,3.5-11.8,2.1-17.7c-1.4-6-4.9-11.2-9.9-14.9s-11-5.4-17.1-5s-11.9,3-16.3,7.2
	c-4.4,4.3-7.2,9.9-7.8,16c-0.6,6.1,0.9,12.2,4.4,17.3c3.4,5.1,8.6,8.8,14.5,10.4c5.9,1.7,12.2,1.2,17.8-1.4l-1.1-2.5
	c-5,2.3-10.6,2.7-15.9,1.2c-5.3-1.5-9.9-4.8-13-9.3c-3.1-4.5-4.5-10-3.9-15.5c0.6-5.5,3.1-10.5,7-14.3c4-3.8,9.1-6.1,14.6-6.4
	c5.5-0.4,10.9,1.2,15.3,4.5c4.4,3.3,7.5,8,8.8,13.3c1.3,5.3,0.6,11-1.8,15.9L49.5,37.9z"/>
<path d="M33.1,27.5h-5.4V33h-2.8v-5.5h-5.4V25h5.4v-5.5h2.8V25h5.4V27.5z"/>
</svg>
